# xmcd CD database file
#
# Track frame offsets:
#	150
#	5258
#	43734
#	52585
#	76908
#	89069
#	103427
#	108118
#	143973
#	150476
#	172707
#	178770
#	206847
#	219378
#
# Disc length: 3303 seconds
#
# Revision: 0
# Processed by: cddbd v1.5.2PL0 Copyright (c) Steve Scherf et al.
# Submitted via: CDex 1.70beta2
#
DISCID=b20ce50e
DTITLE=Mimi Rutherfur - Priestermord
DYEAR=2010
DGENRE=Hoerbuch
TTITLE0=01 Priestermord
TTITLE1=02 Priestermord
TTITLE2=03 Priestermord
TTITLE3=04 Priestermord
TTITLE4=05 Priestermord
TTITLE5=06 Priestermord
TTITLE6=07 Priestermord
TTITLE7=08 Priestermord
TTITLE8=09 Priestermord
TTITLE9=10 Priestermord
TTITLE10=11 Priestermord
TTITLE11=12 Priestermord
TTITLE12=13 Priestermord
TTITLE13=14 Priestermord
EXTD=YEAR: 2010
EXTT0=
EXTT1=
EXTT2=
EXTT3=
EXTT4=
EXTT5=
EXTT6=
EXTT7=
EXTT8=
EXTT9=
EXTT10=
EXTT11=
EXTT12=
EXTT13=
PLAYORDER=
